<svg id="Layer_1" data-name="Layer 1" xmlns="http://www.w3.org/2000/svg" viewBox="0 0 50 50"><defs><style>.cls-1{fill:#2d2d2d;}</style></defs><title>maya icon</title><path class="cls-1" d="M9.38,9.3c-.45,0-.72,0-.88-.07a12.81,12.81,0,0,1-1.13-.91c.39-.31.77-.86,1.17-.88,1.92-.1,3.84,0,5.76,0h3.92c0-.68,0-1.18,0-1.67A3.11,3.11,0,0,1,21.46,2.4q3.57-.1,7.14,0a3.12,3.12,0,0,1,3.3,3.4c0,.45,0,.9,0,1.6h3.17c1.88,0,3.75,0,5.63,0,.76,0,1.89-.31,1.93.88,0,.42-.92.88-1.43,1.32l-.45-.25v1.58q0,16.47,0,32.94c0,2.87-.91,3.77-3.77,3.78H13.11c-2.84,0-3.73-.9-3.73-3.79q0-16.47,0-32.94C9.38,10.42,9.38,9.93,9.38,9.3Zm1.88,0c0,.55-.06.95-.06,1.35q0,16.53,0,33.06c0,1.93.16,2.08,2.14,2.08H36.78c2,0,2.1-.06,2.1-2.06q0-16.46,0-32.93c0-.48,0-1-.07-1.5Zm9-2h9.71c.27-2.79.13-2.94-2.53-2.94H22.62C20.08,4.33,19.81,4.66,20.23,7.27Z"/><path class="cls-1" d="M30,27.48q0-5.62,0-11.23a2.49,2.49,0,0,1,.06-1.08,1.62,1.62,0,0,1,.91-.81c.22,0,.65.42.81.74a2.55,2.55,0,0,1,.09,1.08q0,11.37,0,22.74A2.56,2.56,0,0,1,31.83,40c-.16.31-.58.74-.82.7a1.55,1.55,0,0,1-.92-.77A2.46,2.46,0,0,1,30,38.85Q30,33.16,30,27.48Z"/><path class="cls-1" d="M18.22,27.49q0-5.62,0-11.23c0-.32-.1-.7,0-.94a6,6,0,0,1,.9-1,10.11,10.11,0,0,1,.89,1c.11.16,0,.45,0,.67q0,11.58,0,23.15A1.64,1.64,0,0,1,20,40c-.2.31-.57.75-.81.72a1.53,1.53,0,0,1-.93-.75,2.42,2.42,0,0,1-.06-1.08Q18.21,33.18,18.22,27.49Z"/><path class="cls-1" d="M26,27.57q0,5.82,0,11.64c0,.68.12,1.51-.9,1.51s-.93-.83-.93-1.51q0-11.64,0-23.29s0-.09,0-.14c0-.69,0-1.57,1-1.42.35.05.81.91.82,1.41C26,19.72,26,23.65,26,27.57Z"/></svg>