<svg id="Layer_1" data-name="Layer 1" xmlns="http://www.w3.org/2000/svg" viewBox="0 0 50 50"><defs><style>.cls-1{fill:#2d2d2d;}</style></defs><title>maya icon</title><path class="cls-1" d="M32.33,6.47c1-1.06,2-2.1,3.05-3.11a3.2,3.2,0,0,1,4.89,0q3.22,3.19,6.41,6.41a3.12,3.12,0,0,1,0,4.79c-1,1.05-2.1,2.06-3.21,3.15.87,1.23.31,2.09-.6,2.95-1.27,1.19-2.42,2.5-3.72,3.65a2.17,2.17,0,0,1-1.68.57,1.33,1.33,0,0,0-1.53.49C29.26,32,22.53,38.72,15.85,45.45a4.68,4.68,0,0,1-3.29,1.44c-2.82.17-5.64.49-8.44.83-1.86.22-2.08,0-1.87-1.79q.5-4.33.88-8.67a4.48,4.48,0,0,1,1.34-3Q14.61,24.22,24.69,14.11c.42-.42.82-.71.49-1.51a2.16,2.16,0,0,1,.53-1.78c1.23-1.38,2.58-2.65,3.9-4C30.6,5.88,30.92,5.83,32.33,6.47ZM14.63,44.23,35.32,23.44l-8.7-8.76L6,35.39c.67.14,1.45.25,2.19.47a1.86,1.86,0,0,0,2.09-.59c3.14-3.22,6.34-6.37,9.52-9.55.21-.21.4-.52.66-.6s.85-.13,1,0a1.42,1.42,0,0,1,0,1.05c-.08.26-.39.44-.6.66l-9.54,9.53A2.13,2.13,0,0,0,10.95,39a2.1,2.1,0,0,0,2.62-.29L25.34,26.93c.21-.21.4-.52.66-.61a4,4,0,0,1,1.09-.08A4.58,4.58,0,0,1,27,27.41c-.08.26-.4.44-.61.65q-5.89,5.89-11.77,11.79c-.27.27-.65.68-.62,1C14.14,42,14.41,43.1,14.63,44.23Zm12-32.45,11.5,11.5A4.09,4.09,0,0,0,38.8,22a3.45,3.45,0,0,1,1.81-2.17,14.89,14.89,0,0,0,1.8-.7L30.83,7.55a8.15,8.15,0,0,1-.72,1.84,7.75,7.75,0,0,1-1.76,1.8A6,6,0,0,1,26.63,11.77Zm15.88,4.8c1.05-1.08,2.13-2.14,3.16-3.24a1.53,1.53,0,0,0,0-2.4C43.5,8.7,41.28,6.49,39,4.29a1.46,1.46,0,0,0-2.14-.18c-1.21,1.11-2.33,2.33-3.42,3.44ZM13.22,45.24c-.21-1.13-.44-2.15-.58-3.18-.11-.83-.48-1.3-1.34-1.31-1.37,0-2-.74-2.08-2.08,0-.38-.28-1-.56-1.08-1.24-.36-2.53-.56-3.87-.83A17.47,17.47,0,0,1,4.47,40c-.72,2.46.53,4,2.27,5.34a1.5,1.5,0,0,0,.87.38C9.45,45.56,11.29,45.4,13.22,45.24Z"/><path class="cls-1" d="M26.25,21.18a1.38,1.38,0,0,1-.21.42c-.79.81-1.57,1.64-2.42,2.38a1,1,0,0,1-.94-.12,1,1,0,0,1,0-1A25.5,25.5,0,0,1,25,20.59.78.78,0,0,1,26.25,21.18Z"/><path class="cls-1" d="M35.36,14.1c.11.41.45,1,.29,1.2a5.13,5.13,0,0,1-1.41,1.41c-.47.34-1.3-.19-1.06-.62A14.15,14.15,0,0,1,34.84,14Z"/><path class="cls-1" d="M31.13,14.39c-.39-.56-.82-1-.76-1.1.57-.67,1.22-1.27,1.85-1.9.25.26.75.7.71.76C32.45,12.86,31.88,13.5,31.13,14.39Z"/><path class="cls-1" d="M39,17.82c-.88.73-1.51,1.3-2.21,1.79-.06,0-.5-.45-.77-.69.62-.64,1.22-1.29,1.89-1.87C37.94,17,38.43,17.43,39,17.82Z"/></svg>