<svg id="Layer_1" data-name="Layer 1" xmlns="http://www.w3.org/2000/svg" viewBox="0 0 50 50"><defs><style>.cls-1{fill:none;stroke:#2d2d2d;stroke-miterlimit:10;stroke-width:1.5px;}.cls-2{fill:#2d2d2d;}</style></defs><title>maya icon</title><polyline class="cls-1" points="3.22 4.5 3.22 45.5 48.78 45.5"/><path class="cls-2" d="M35.24,45.17a1.5,1.5,0,0,1-.11-.22,2.51,2.51,0,0,1,0-.83q0-15.58,0-31.16c0-1.58,0-1.59,1.57-1.59,1.24,0,2.48.06,3.71,0s1.22.49,1.22,1.38c0,6.91,0,13.82,0,20.74V45.28h1.29q0-16.65,0-33.29c0-1.32-.57-1.87-1.92-1.89-1.6,0-3.2,0-4.79,0-1.92,0-2.33.41-2.33,2.31q0,16.36,0,32.72Z"/><path class="cls-2" d="M23.17,44.84a.67.67,0,0,1,0-.12c-.06-1.72,0-3.44,0-5.16,0-5.92,0-11.84,0-17.76,0-1.09.28-1.5,1.41-1.42a28.7,28.7,0,0,0,3.84,0c1-.06,1.29.32,1.28,1.3,0,7,0,14,0,21V45l1.27,0q0-12.06,0-24.13A1.65,1.65,0,0,0,29,19.07c-1.64,0-3.28,0-4.91,0s-2.26.5-2.26,2.28q0,11.73,0,23.46Z"/><path class="cls-2" d="M12.17,29.36c1.48,0,3,0,4.43,0,.61,0,1,.13,1,.85,0,4.8,0,9.6,0,14.56h1.29c0-5.09,0-10.09,0-15.08,0-1.11-.76-1.61-1.84-1.61-1.68,0-3.35,0-5,0s-2.16.46-2.16,2.23q0,7.28,0,14.56a2.36,2.36,0,0,1,1.27,0c0-.13,0-.28,0-.41q0-5.75,0-11.5c0-.88,0-1.76,0-2.63S11.4,29.33,12.17,29.36Z"/></svg>