<svg id="Layer_1" data-name="Layer 1" xmlns="http://www.w3.org/2000/svg" viewBox="0 0 100 100"><defs><style>.cls-1{fill:none;}.cls-2{fill:#152849;}.cls-3{fill:#338c03;}.cls-4{fill:#82cc00;}</style></defs><title>CockroachLabs_Logo_Mark</title><path class="cls-1" d="M31.61,55.1a48.47,48.47,0,0,0,13.3,33.4,48.44,48.44,0,0,0,2.24-14.63,48.43,48.43,0,0,0-13.28-33.4A48.31,48.31,0,0,0,31.61,55.1Z"/><path class="cls-1" d="M55.28,88.5a48.47,48.47,0,0,0,13.3-33.4,48.76,48.76,0,0,0-2.24-14.62A48.67,48.67,0,0,0,55.28,88.5Z"/><path class="cls-2" d="M94.22,2.29A53.8,53.8,0,0,0,80.34.5,54.37,54.37,0,0,0,50.09,9.64,54.3,54.3,0,0,0,19.84.5,53.8,53.8,0,0,0,6,2.29,50.6,50.6,0,0,0,.52,4a0.22,0.22,0,0,0-.12.29A54.67,54.67,0,0,0,3,9.21a0.21,0.21,0,0,0,.25.09A51.23,51.23,0,0,1,8.88,7.63a48.9,48.9,0,0,1,36.21,5.8,54.77,54.77,0,0,0-11.8,14c-0.61,1-1.17,2-1.7,3.09-0.36.7-.7,1.42-1,2.17-0.49,1.12-1,2.24-1.39,3.39A54.55,54.55,0,0,0,42.56,94.49c0.81,0.79,1.64,1.54,2.52,2.27,0.69,0.6,1.37,1.15,2.09,1.69,0.9,0.72,1.85,1.38,2.79,2a0.21,0.21,0,0,0,.24,0c0.94-.65,1.88-1.31,2.78-2,0.73-.54,1.42-1.09,2.11-1.69,0.87-.73,1.73-1.49,2.54-2.27A54.55,54.55,0,0,0,71,36.08c-0.43-1.15-.9-2.29-1.4-3.41-0.33-.75-0.67-1.46-1-2.17-0.55-1-1.11-2.08-1.72-3.09a55.08,55.08,0,0,0-11.8-14,48.9,48.9,0,0,1,36.21-5.8A50.45,50.45,0,0,1,97,9.3a0.21,0.21,0,0,0,.25-0.09q1.39-2.36,2.56-4.88A0.22,0.22,0,0,0,99.67,4,52.6,52.6,0,0,0,94.22,2.29ZM61.07,29.16a48.06,48.06,0,0,1-11,1.25,48.29,48.29,0,0,1-11-1.25,48.89,48.89,0,0,1,11-12.23A49.09,49.09,0,0,1,61.07,29.16Z"/><path class="cls-3" d="M68.57,55.11a48.49,48.49,0,0,1-13.3,33.4,48.7,48.7,0,0,1,11.06-48A48.82,48.82,0,0,1,68.57,55.11Z"/><path class="cls-4" d="M47.15,73.87a48.59,48.59,0,0,1-2.24,14.63,48.58,48.58,0,0,1-11-48A48.43,48.43,0,0,1,47.15,73.87Z"/></svg>