<?xml version="1.0" encoding="UTF-8"?>
<svg width="492px" height="339px" viewBox="0 0 492 339" version="1.1" xmlns="http://www.w3.org/2000/svg" xmlns:xlink="http://www.w3.org/1999/xlink">
    <!-- Generator: Sketch 47.1 (45422) - http://www.bohemiancoding.com/sketch -->
    <title>maya-m</title>
    <desc>Created with Sketch.</desc>
    <defs></defs>
    <g id="Symbols" stroke="none" stroke-width="1" fill="none" fill-rule="evenodd">
        <g id="maya-m" fill-rule="nonzero" fill="#FFFFFF">
            <g id="Shape">
                <path d="M490.22,161.66 C488.450643,148.011303 485.318335,134.574204 480.87,121.55 C470.281559,89.3996482 451.595329,60.5162331 426.61,37.68 C410.849186,23.4244365 393.269658,11.3191756 374.33,1.68 C372.4375,0.65030806 370.158895,0.620375641 368.24,1.6 C361,4.9 353.72,8.18 346.55,11.68 C332.207276,18.5066897 318.36009,26.329147 305.11,35.09 C290.18,45.17 275.87,56.09 261.49,66.94 C257.49,69.94 253.59,73 249.6,75.94 C246.85,77.94 245.19,77.94 242.7,75.84 C237.7,71.57 232.31,67.73 227.13,63.67 C200.84,43.12 173.07,24.84 143,10.12 C136.82,7.12 130.54,4.28 124.25,1.51 C122.074945,0.339987671 119.422745,0.514729942 117.42,1.96 C116.42,2.67 115.28,3.22 114.2,3.85 C106.8,8.14 99.2,12.07 92.12,16.95 C79.3212027,25.7481574 67.4293239,35.7976325 56.62,46.95 C42.9816942,60.9808574 31.5212895,76.9748633 22.62,94.4 C7.8,123.51 1.35,154.64 0.69,187.11 C0.620204323,197.208462 1.1410937,207.302364 2.25,217.34 C3.15,226.51 4.1,235.67 5.87,244.73 C9.25397093,262.814116 15.725088,280.18093 25,296.07 C33.44,310.39 42.06,324.59 50.72,338.77 L112.65,338.77 C111.35,335.09 110.056667,331.423333 108.77,327.77 C101.43,306.77 94.13,285.77 88.69,264.18 C85.5849142,251.982987 83.1149256,239.633045 81.29,227.18 C80.2,219.64 79.37,212.08 78.88,204.49 C78.4270451,200.269479 78.2833285,196.021484 78.45,191.78 C79.05,184.05 79.75,176.33 80.5,168.61 C81.1636146,160.733438 82.6346703,152.94589 84.89,145.37 C88.78,133 95,122.11 104.75,113.5 C115.552401,103.768609 129.167335,97.7210294 143.63,96.23 C154.593824,94.8315167 165.659694,97.8979625 174.34,104.74 C181.02,109.93 185.67,116.74 189.42,124.17 C194.68,134.65 197.91,145.8 200.42,157.17 C203.652469,172.576483 205.387213,188.259501 205.6,204 C205.86,215.186667 205.82,226.383333 205.48,237.59 C205.12,249.14 204.85,260.69 204.59,272.25 C204.33,283.81 203.94,324.45 202.18,335.83 C201.76,338.52 201.84,338.53 204.57,338.53 L287.36,338.53 C287.87,338.53 288.36,338.53 288.89,338.53 C289.72,338.53 290.13,338.2 290.03,337.35 C290.03,336.98 290.03,336.61 289.96,336.25 C289.09,329.64 288.79,293.74 288.4,287.1 C287.67,274.99 287,262.86 286.65,250.72 C286.21,235.51 286.14,220.29 286.77,205.07 C287.256233,190.446597 288.783431,175.876398 291.34,161.47 C293.26,151.09 295.69,140.85 299.78,131.08 C303.68,121.75 308.64,113.08 316.08,106.08 C323.882104,98.4862756 334.322676,94.2104078 345.21,94.15 C350.992045,94.1426278 356.735744,95.0886488 362.21,96.95 C375.86,101.34 387.44,108.81 396.21,120.29 C404.71,131.39 409.06,144.16 411.21,157.8 C412.82,168.15 413.36,178.6 414.26,189.02 C414.48491,193.3473 414.398018,197.685178 414,202 C413.394869,211.854861 412.276687,221.671501 410.65,231.41 C407.494746,250.029931 403.047332,268.407672 397.34,286.41 C391.86,304.04 385.63,321.41 379.53,338.84 L441.74,338.84 C449.31,326.49 456.91,314.14 464.35,301.7 C474.78979,284.427123 482.171376,265.482631 486.17,245.7 C489.158181,230.70319 491.023357,215.504342 491.75,200.23 C492.362951,187.353305 491.851009,174.447682 490.22,161.66 Z"></path>
            </g>
        </g>
    </g>
</svg>