<svg id="Layer_1" data-name="Layer 1" xmlns="http://www.w3.org/2000/svg" xmlns:xlink="http://www.w3.org/1999/xlink" viewBox="0 0 228 405"><defs><style>.cls-1{fill:#493636;}.cls-2{fill:#b27f6f;}.cls-3{fill:#b18070;}.cls-4{fill:url(#radial-gradient);}.cls-5{fill:url(#radial-gradient-2);}.cls-6{fill:#050505;}.cls-7{fill:#fff;}.cls-8{fill:url(#radial-gradient-3);}.cls-9{fill:url(#radial-gradient-4);}.cls-10{fill:url(#radial-gradient-5);}.cls-11{fill:#4b3838;}</style><radialGradient id="radial-gradient" cx="46.25" cy="89.59" r="55.42" gradientTransform="translate(0 0.53)" gradientUnits="userSpaceOnUse"><stop offset="0" stop-color="#3192c3"/><stop offset="1" stop-color="#3192c3"/></radialGradient><radialGradient id="radial-gradient-2" cx="181.7" cy="89.56" r="55.42" xlink:href="#radial-gradient"/><radialGradient id="radial-gradient-3" cx="111.77" cy="121.63" r="11.21" xlink:href="#radial-gradient"/><radialGradient id="radial-gradient-4" cx="114.54" cy="82.92" r="7.99" xlink:href="#radial-gradient"/><radialGradient id="radial-gradient-5" cx="126.94" cy="120.45" r="6.15" xlink:href="#radial-gradient"/></defs><title>mule face</title><path class="cls-1" d="M41.14,2.5h5.55c.16.25.43.17.65.19a25.72,25.72,0,0,1,6.92,1.77c5.57,2.28,9.7,6.28,13.16,11.06A85.29,85.29,0,0,1,79.36,40.28,213,213,0,0,1,85,64Q87.38,76.29,88.8,88.7c.79,6.89,1.12,13.82,1.72,20.73a56.92,56.92,0,0,0-3.71,9.27,56.46,56.46,0,0,0-2.68,11c-2.58-8.17-2.84-16.56-2.56-25.27a86.75,86.75,0,0,0-4,10.29,23.45,23.45,0,0,1,.09-2.76c.12-5.6,0-11.2-.29-16.8A235.74,235.74,0,0,0,74,67.05,109.68,109.68,0,0,0,64.11,36.6c-2.33-4.56-5-8.89-8.86-12.34C51.57,21,47.5,18.46,42.4,18.32A26.25,26.25,0,0,0,24.05,25c-3.49,3-5.41,7.09-7,11.33-2.59,7.07-2.72,14.39-1.8,21.74a168,168,0,0,0,6,27.58,214.32,214.32,0,0,0,28.47,58.78,80.74,80.74,0,0,0,13.5,15.65c2.7,2.36,4.11,2.09,5.86-1A50.79,50.79,0,0,0,73.81,147c.75-2.87,1.37-5.77,2-8.65a42,42,0,0,0,2.09,7.14c1.56,3.46,2.67,7.24,6.36,9.24a.67.67,0,0,1,.32.87c-1,3.39-.4,6.75.28,10.1a65,65,0,0,0,3.15,10.26,47.19,47.19,0,0,0,2.76,6.15,22.53,22.53,0,0,1,.38-10,29.75,29.75,0,0,1,4-9.34c-1.41,12.44.75,24.33,5.06,36.23a4,4,0,0,0,.13-.55,139.46,139.46,0,0,1,.82-18.89,38.91,38.91,0,0,1,2.63-11.09c.85-1.92,1.9-3.72,4-4.66.57-.26.92-.24,1.21.41a69.08,69.08,0,0,1,4.64,14c.63,3.18,1.12,6.38.37,9.62,0,.19-.12.46.11.54s.46-.21.62-.42c4.51-6.15,8.05-12.74,9.38-20.35a29.56,29.56,0,0,0,.39-5.77c0-1.89-.55-3.7-.67-5.57h0a46.27,46.27,0,0,1,5.91,6.21c3.3,4.27,6.06,8.82,7.35,14.13a24,24,0,0,1,.78,8.27c-.17,1.63-.62,3.2-.68,4.84l-.15.22.07.05.08-.27c.18-.29.38-.56.53-.86a83.16,83.16,0,0,0,5.35-14,45.58,45.58,0,0,0,1.92-13.18c0-.52-.08-1-.13-1.72a7,7,0,0,1,2,1.89c1.84,2.49,2.53,5.4,3.07,8.37.36,2,.68,4,1,6a15.29,15.29,0,0,0,1.1-2.77,40.09,40.09,0,0,0,2-17,16.26,16.26,0,0,0-2.63-7.33,1.07,1.07,0,0,1,0-1.42,16.48,16.48,0,0,0,1.87-4.3,3.53,3.53,0,0,1,.13.38,57.55,57.55,0,0,0,5.44,15.18c1.86,3.38,3.29,3.59,6.2,1a69.6,69.6,0,0,0,9.12-9.84,201.86,201.86,0,0,0,21.33-35.42A190.12,190.12,0,0,0,211.26,67c1.42-7.53,2.53-15.1,1.5-22.8a34.25,34.25,0,0,0-6.69-16.85c-3.64-4.67-8.73-7.11-14.4-8.45a19,19,0,0,0-16.58,3.43,31.81,31.81,0,0,0-7.4,7.76,85.13,85.13,0,0,0-9.81,21.12,136.63,136.63,0,0,0-5.12,22.95c-.84,5.81-1.54,11.64-1.92,17.51-.17,2.73-.37,5.45-.48,8.18-.17,4.48-.15,9,0,13.43.1,3.24.52,6.47.47,9.72-.65-1.69-1.28-3.37-1.94-5.05-.42-1.07-.88-2.12-1.32-3.17.15,2.93,0,5.79,0,8.66a22.35,22.35,0,0,1-1.46,8.1c-.91,2.35-2.26,4.36-4.83,5.24-.76.26-1.17.21-1.44-.66a13.28,13.28,0,0,1-.38-6.34,24.55,24.55,0,0,1,3.6-8.53c.14-.23.41-.46.3-.72s-.54-.19-.83-.19a17.42,17.42,0,0,0-6,1.44c.63-8.17,1.25-16.34,2-24.5.78-8.33,1.76-16.63,3.07-24.89a212.19,212.19,0,0,1,9.32-37c3-8.7,7.11-16.83,13.43-23.7,6.79-7.38,15.27-10,25-8.59a38.3,38.3,0,0,1,20.91,10.3c9.36,8.7,13.32,19.81,14,32.3q0,4.7,0,9.41a88.6,88.6,0,0,1-.69,9,155,155,0,0,1-5.84,26.85c-6.67,21.79-16,42.43-26.62,62.55-1.61,3-3.36,6-5.12,9-1.26,2.12-1,3.27.81,4.8l.64.51a45.76,45.76,0,0,1,7.6,7.59,50,50,0,0,1,9.25,20.19,61.36,61.36,0,0,1,1.51,17c-.23,4.34-.78,8.63-1.3,12.94-.59,4.85-1.12,9.7-1.77,14.54-.8,6-1.72,12-2.52,17.94-1,7.68-2.35,15.31-3.63,22.95-1.22,7.27-2.4,14.54-3.6,21.81-.85,5.18-1.48,10.42-2.61,15.54-2.19,9.94-5.71,19.47-9.54,28.88-.35-.19-.34-.57-.47-.88-.55-1.36-1-2.76-1.67-4.08a104.88,104.88,0,0,0-17.51-25.41,95.76,95.76,0,0,0-19.78-16.22c-7.87-4.9-16.26-8.34-25.59-9.31a39,39,0,0,0-19,2.82,60.23,60.23,0,0,0-18.34,12,117.55,117.55,0,0,0-19,22.39,81.82,81.82,0,0,0-9.91,21.63c-1,3.34-1.45,6.79-2.29,10.15l-.72,2.33c-.16-.32-.27-.53-.37-.75-3.17-7.21-6.22-14.46-9-21.82a131.26,131.26,0,0,1-6.12-18.74c-1.6-7.36-1.93-14.89-2.46-22.38q-.5-7.05-1-14.1c-.26-4-.85-7.88-1.29-11.81-.59-5.2-.81-10.42-1.08-15.64-.31-6.07-.88-12.13-1.44-18.18q-.77-8.21-1.33-16.44A63.2,63.2,0,0,1,23.58,205c2.3-10.67,7.35-20,14.17-28.4a56.13,56.13,0,0,1,6-6.32c1.34-1.21,1.5-2.21.69-3.83-.15-.3-.32-.6-.49-.9-7.41-13-14.32-26.28-20.41-40-7.48-16.83-14-34-17.43-52.14a117,117,0,0,1-2.38-20c0-.21.13-.49-.2-.61V49.91c.28-.08.2-.32.2-.5a53.36,53.36,0,0,1,.41-6.23A54.93,54.93,0,0,1,9.41,24.59C15,13.37,24.47,7,36.19,3.56,37.8,3.08,39.49,2.85,41.14,2.5Zm102.91,267c.92,0,1.85,0,2.77,0s1.84-.19,2.75-.34A54.3,54.3,0,0,0,181,253c5.77-6,7.72-13,5.29-21a41,41,0,0,0-18.32-23.42,19.32,19.32,0,0,0-16.58-1.84,27.92,27.92,0,0,0-11.46,7.13A55.43,55.43,0,0,0,125,241.42c-1.78,7.83-.49,15.25,3,22.35a9.91,9.91,0,0,0,8.21,5.84C138.88,269.89,141.46,269.44,144.06,269.49Zm-57.69.29h1.68c4.16-.07,7.79-1.32,10.08-5a28.81,28.81,0,0,0,4.25-13.11c.39-5.27-.65-10.41-2.07-15.45-3.51-12.44-10.73-22-22.16-28.31a17.15,17.15,0,0,0-12.45-2.06c-6,1.4-10.75,4.79-15,9a44,44,0,0,0-9.89,16,19.25,19.25,0,0,0,2.86,19.6,44.9,44.9,0,0,0,9.6,9C63.23,266.65,74.55,269.4,86.37,269.78Z"/><path class="cls-2" d="M180.85,347.08c.36,1.56.76,3.11,1.07,4.68,1.92,10-.39,19-6.42,27.08a57.83,57.83,0,0,1-29.34,20.58,66.94,66.94,0,0,1-18.38,2.89c-.31,0-.69-.18-.93.2H112.66c-.14-.29-.41-.19-.63-.2A171.55,171.55,0,0,1,87.66,400c-6.85-1.23-13.58-2.84-19.89-5.88-13.59-6.54-20.22-17.41-20.26-32.4,0-.51.26-1.08-.17-1.55.84-3.37,1.32-6.81,2.29-10.15a81.82,81.82,0,0,1,9.91-21.63,117.55,117.55,0,0,1,19-22.39,60.23,60.23,0,0,1,18.34-12,39,39,0,0,1,19-2.82c9.33,1,17.72,4.41,25.59,9.31a95.76,95.76,0,0,1,19.78,16.22,104.88,104.88,0,0,1,17.51,25.41c.64,1.32,1.11,2.72,1.67,4.08C180.51,346.5,180.5,346.88,180.85,347.08ZM159.72,367a2.06,2.06,0,0,0-.86.53c-6.06,4.53-12.29,8.78-19.25,11.86a54.46,54.46,0,0,1-32.8,3.71c-9.36-1.75-18.07-5.32-26.53-9.57-3.67-1.84-7.19-3.93-10.78-5.91l-.08,0,.09,0c0,.54.42.84.7,1.2A64.2,64.2,0,0,0,100.47,390a49.07,49.07,0,0,0,29,1.15c11.3-3,20.17-9.67,27.13-19a23.8,23.8,0,0,0,3.19-5.1l.11-.11s0,0,0-.07ZM163,337a5.13,5.13,0,0,0-1.13-3.86,23.13,23.13,0,0,0-5.71-5.42,11.77,11.77,0,0,0-15.06,1.21c-2.41,2.42-3.14,5.5-3.33,8.7a34.81,34.81,0,0,1-5.28,16.29c-1.68,2.74-3.49,5.4-5.38,8-1.12,1.55-.8,2.88.86,3.84a3.81,3.81,0,0,0,3.56,0c8.31-3.53,16.26-7.67,23.33-13.36C159.83,348.41,162.8,343.43,163,337ZM70.08,339.1a10.93,10.93,0,0,0,1.71,6c2.53,4.27,6.22,7.42,10.21,10.23,5.3,3.73,11.15,6.5,16.92,9.41a20.89,20.89,0,0,0,3.57,1.24,3.47,3.47,0,0,0,3.3-.88,1.6,1.6,0,0,0,.52-2.1,8.12,8.12,0,0,0-1.72-2.53c-.34-.34-.78-.7-.72-1.19a1.89,1.89,0,0,0-.7-1.6c-.41-.45-.8-.94-1.18-1.42A33.54,33.54,0,0,1,95.2,337c-.4-7.46-6.43-12.44-13.33-11.29C75.48,326.77,70.08,332.64,70.08,339.1Z"/><path class="cls-3" d="M224.27,45.62l.2,0V55h-.18Q224.27,50.33,224.27,45.62Z"/><path class="cls-4" d="M75.86,138.33c-.68,2.88-1.3,5.78-2,8.65a50.79,50.79,0,0,1-4.71,12.08c-1.75,3.14-3.15,3.41-5.86,1a80.74,80.74,0,0,1-13.5-15.65A214.32,214.32,0,0,1,21.27,85.68a168,168,0,0,1-6-27.58c-.92-7.36-.79-14.67,1.8-21.74,1.55-4.23,3.47-8.31,7-11.33A26.25,26.25,0,0,1,42.4,18.32c5.1.13,9.17,2.66,12.85,5.94,3.88,3.45,6.53,7.78,8.86,12.34A109.68,109.68,0,0,1,74,67.05a235.74,235.74,0,0,1,3.35,28.15c.34,5.6.41,11.2.29,16.8a23.45,23.45,0,0,0-.09,2.76c-.08.33-.15.66-.23,1a57.45,57.45,0,0,0-2.08,16C75.32,133.94,75.65,136.13,75.86,138.33Z"/><path class="cls-5" d="M150.82,123c.06-3.25-.36-6.47-.47-9.72-.14-4.48-.17-9,0-13.43.11-2.73.31-5.45.48-8.18.37-5.87,1.07-11.7,1.92-17.51a136.63,136.63,0,0,1,5.12-22.95,85.13,85.13,0,0,1,9.81-21.12,31.81,31.81,0,0,1,7.4-7.76,19,19,0,0,1,16.58-3.43c5.67,1.34,10.77,3.78,14.4,8.45a34.25,34.25,0,0,1,6.69,16.85c1,7.7-.08,15.26-1.5,22.8a190.12,190.12,0,0,1-15.84,47.66,201.86,201.86,0,0,1-21.33,35.42,69.6,69.6,0,0,1-9.12,9.84c-2.91,2.57-4.34,2.36-6.2-1a57.55,57.55,0,0,1-5.44-15.18,3.55,3.55,0,0,0-.13-.38,26.47,26.47,0,0,0,0-11.06A79.16,79.16,0,0,0,150.82,123Z"/><path class="cls-6" d="M150.82,123a79.16,79.16,0,0,1,2.41,9.29,26.47,26.47,0,0,1,0,11.06,16.48,16.48,0,0,1-1.87,4.3,1.07,1.07,0,0,0,0,1.42,16.26,16.26,0,0,1,2.63,7.33,40.09,40.09,0,0,1-2,17,15.29,15.29,0,0,1-1.1,2.77c-.34-2-.65-4-1-6-.54-3-1.24-5.88-3.07-8.37a7,7,0,0,0-2-1.89c.05.67.12,1.2.13,1.72A45.58,45.58,0,0,1,143,174.78a83.16,83.16,0,0,1-5.35,14c-.15.3-.35.58-.53.86h0c.07-1.63.51-3.21.68-4.84a24,24,0,0,0-.78-8.27c-1.29-5.31-4-9.86-7.35-14.13a46.28,46.28,0,0,0-5.91-6.21l-.08,0,.09,0c.12,1.87.63,3.67.67,5.57a29.56,29.56,0,0,1-.39,5.77c-1.33,7.61-4.88,14.2-9.38,20.35-.15.21-.28.54-.62.42s-.15-.35-.11-.54c.75-3.24.26-6.43-.37-9.62a69.08,69.08,0,0,0-4.64-14c-.28-.65-.64-.67-1.21-.41-2.06.93-3.1,2.74-4,4.66a38.91,38.91,0,0,0-2.63,11.09,139.46,139.46,0,0,0-.82,18.89,4,4,0,0,1-.13.55c-4.31-11.89-6.47-23.79-5.06-36.23a29.75,29.75,0,0,0-4,9.34,22.53,22.53,0,0,0-.38,10,47.19,47.19,0,0,1-2.76-6.15,65,65,0,0,1-3.15-10.26c-.68-3.34-1.26-6.71-.28-10.1a.67.67,0,0,0-.32-.87c-3.69-2-4.8-5.79-6.36-9.24a42,42,0,0,1-2.09-7.14c-.21-2.2-.54-4.39-.58-6.61a57.45,57.45,0,0,1,2.08-16c.09-.33.16-.66.23-1a86.75,86.75,0,0,1,4-10.29c-.27,8.7,0,17.1,2.56,25.27a56.46,56.46,0,0,1,2.68-11,56.92,56.92,0,0,1,3.71-9.27l-.06.81a1.28,1.28,0,0,0-.18.35,21.85,21.85,0,0,0,0,7.12,9.63,9.63,0,0,0,.94,3.62,31.73,31.73,0,0,0,3.16,8c1.81-5.08,3.52-9.88,2-15.13l0,0c1.55,1.13,2.56,2.77,3.87,4.12a66.41,66.41,0,0,1,4.36,6.68,46.87,46.87,0,0,1,2.83,6.51,58.7,58.7,0,0,1,5.67-16.18c.81,6.34,2.19,12.19,5.15,17.66a17.84,17.84,0,0,0,1.95-3,20.58,20.58,0,0,0,2.7-13.77,12.78,12.78,0,0,1-.63-2.88l.21,0a72.81,72.81,0,0,1,6.88,15,21.86,21.86,0,0,1,1.94-2.84,16.51,16.51,0,0,1,5.17-3.72,17.42,17.42,0,0,1,6-1.44c.28,0,.67-.17.83.19s-.16.49-.3.72a24.55,24.55,0,0,0-3.6,8.53,13.28,13.28,0,0,0,.38,6.34c.28.87.68.92,1.44.66,2.57-.88,3.92-2.88,4.83-5.24a22.35,22.35,0,0,0,1.46-8.1c0-2.86.11-5.73,0-8.66.44,1.06.9,2.11,1.32,3.17C149.54,119.6,150.18,121.29,150.82,123Z"/><path class="cls-7" d="M144.06,269.49c-2.6-.06-5.18.39-7.79.11a9.91,9.91,0,0,1-8.21-5.84c-3.54-7.1-4.83-14.52-3-22.35a55.43,55.43,0,0,1,14.89-27.53,27.92,27.92,0,0,1,11.46-7.13,19.32,19.32,0,0,1,16.58,1.84A41,41,0,0,1,186.26,232c2.44,8,.49,15-5.29,21a54.3,54.3,0,0,1-31.4,16.12c-.91.15-1.83.28-2.75.34S145,269.49,144.06,269.49Zm3.54-1.59a18.12,18.12,0,0,0,4.69-.35c6.33-1.45,10.33-5.55,12.77-11.35a13.62,13.62,0,0,0,1.47-6.82,3.62,3.62,0,0,0-5.23-3.19,18.91,18.91,0,0,0-1.82.92,11.73,11.73,0,0,1-2.15.93c-2.64.79-5-.16-6.8-2.7a5.23,5.23,0,0,1,.21-6.86c.55-.69,1.24-1.27,1.82-1.95a3.79,3.79,0,0,0-2.22-6.42,17.85,17.85,0,0,0-9.78.84c-5.89,2.25-10.27,6.16-11.7,12.44a24.22,24.22,0,0,0,1.24,14.36,14.86,14.86,0,0,0,9.83,9.15A24.8,24.8,0,0,0,147.6,267.9Z"/><path class="cls-7" d="M86.37,269.78c-11.82-.38-23.15-3.14-33.1-10.31a44.9,44.9,0,0,1-9.6-9,19.25,19.25,0,0,1-2.86-19.6,44,44,0,0,1,9.89-16c4.24-4.23,9-7.62,15-9a17.15,17.15,0,0,1,12.45,2.06c11.43,6.27,18.64,15.87,22.16,28.31,1.42,5,2.47,10.18,2.07,15.45a28.81,28.81,0,0,1-4.25,13.11c-2.29,3.7-5.91,5-10.08,5Zm-26.1-20.45c.05.58.1,1.5.22,2.42a15,15,0,0,0,.39,2c1.81,6.72,5.7,11.53,12.57,13.58,2,.6,4.12.45,6.19.61a15.87,15.87,0,0,0,10.43-2.54c5.69-3.84,8.84-9.09,8.18-16.16-.27-3-2.74-5-5.79-2.65a10.73,10.73,0,0,1-1.73,1.08,5.33,5.33,0,0,1-6.13-.58c-3.61-2.84-3.77-6.57-.41-9.67.33-.3.66-.6,1-.93a3.43,3.43,0,0,0,.35-4.57,4.48,4.48,0,0,0-3.41-2,21,21,0,0,0-5.81.17A19,19,0,0,0,60.27,249.33Z"/><path class="cls-6" d="M137.13,189.68l-.08.27-.07-.05.15-.22Z"/><path class="cls-6" d="M163,337c-.21,6.42-3.18,11.4-8.13,15.39-7.07,5.7-15,9.84-23.33,13.36a3.81,3.81,0,0,1-3.56,0c-1.66-1-2-2.29-.86-3.84,1.89-2.6,3.7-5.25,5.38-8a34.81,34.81,0,0,0,5.28-16.29c.19-3.21.92-6.28,3.33-8.7a11.77,11.77,0,0,1,15.06-1.21,23.13,23.13,0,0,1,5.71,5.42A5.13,5.13,0,0,1,163,337Z"/><path class="cls-6" d="M70.08,339.1c0-6.46,5.4-12.33,11.79-13.39,6.9-1.15,12.93,3.83,13.33,11.29A33.54,33.54,0,0,0,102,356.3c.38.49.76,1,1.18,1.42a1.89,1.89,0,0,1,.7,1.6c-.06.49.37.85.72,1.19A8.12,8.12,0,0,1,106.3,363a1.6,1.6,0,0,1-.52,2.1,3.47,3.47,0,0,1-3.3.88,20.89,20.89,0,0,1-3.57-1.24c-5.76-2.91-11.62-5.67-16.92-9.41-4-2.81-7.68-6-10.21-10.23A10.93,10.93,0,0,1,70.08,339.1Z"/><path class="cls-7" d="M69.51,367.61c3.59,2,7.12,4.07,10.78,5.91,8.46,4.24,17.16,7.82,26.53,9.57a54.46,54.46,0,0,0,32.8-3.71c7-3.08,13.19-7.33,19.25-11.86a2.06,2.06,0,0,1,.86-.53l.05.06a24,24,0,0,1-3.19,5.1c-7,9.29-15.83,15.92-27.13,19a49.07,49.07,0,0,1-29-1.15A64.2,64.2,0,0,1,70.22,368.8c-.28-.36-.7-.67-.7-1.2Z"/><path class="cls-7" d="M159.72,367l.11-.12s.05.06,0,.07l-.11.11Z"/><path class="cls-7" d="M69.52,367.6l-.09,0,.08,0Z"/><path class="cls-8" d="M122.33,113.29a12.78,12.78,0,0,0,.63,2.88,20.58,20.58,0,0,1-2.7,13.77,17.84,17.84,0,0,1-1.95,3c-3-5.48-4.34-11.32-5.15-17.66a58.7,58.7,0,0,0-5.67,16.18,46.87,46.87,0,0,0-2.83-6.51,66.41,66.41,0,0,0-4.36-6.68,16.9,16.9,0,0,1,11.91-7c.27,0,.54-.11.8-.16a12.36,12.36,0,0,0,2.58,0,21.61,21.61,0,0,1,6,1.6A1.32,1.32,0,0,1,122.33,113.29Z"/><path class="cls-9" d="M113,91.19a8.07,8.07,0,1,1,2.53.07A11.81,11.81,0,0,1,113,91.19Z"/><path class="cls-6" d="M113,91.19a11.81,11.81,0,0,0,2.53.07q0,8.67,0,17.34c0,.82,0,1.64,0,2.46a12.36,12.36,0,0,1-2.58,0Q113,101.13,113,91.19Z"/><path class="cls-10" d="M131.35,125.47a21.86,21.86,0,0,0-1.94,2.84,72.81,72.81,0,0,0-6.88-15,12.9,12.9,0,0,1,5.09,4.08,16.44,16.44,0,0,1,3.54,7.58A2.88,2.88,0,0,0,131.35,125.47Z"/><path class="cls-11" d="M91.25,121.33a9.63,9.63,0,0,1-.94-3.62,21.85,21.85,0,0,1,0-7.12,1.28,1.28,0,0,1,.18-.35C90.81,113.94,91.1,117.63,91.25,121.33Z"/><path class="cls-6" d="M96.39,114.19l-.14-.12.11-.1.07.18Z"/><path class="cls-11" d="M123.76,156.22l-.09,0,.08,0Z"/><path class="cls-6" d="M147.6,267.9a24.8,24.8,0,0,1-7.69-1,14.86,14.86,0,0,1-9.83-9.15,24.22,24.22,0,0,1-1.24-14.36c1.43-6.27,5.81-10.18,11.7-12.44a17.85,17.85,0,0,1,9.78-.84,3.79,3.79,0,0,1,2.22,6.42c-.57.68-1.26,1.26-1.82,1.95a5.23,5.23,0,0,0-.21,6.86c1.76,2.54,4.15,3.48,6.8,2.7a11.73,11.73,0,0,0,2.15-.93,18.91,18.91,0,0,1,1.82-.92,3.62,3.62,0,0,1,5.23,3.19,13.62,13.62,0,0,1-1.47,6.82c-2.44,5.8-6.43,9.9-12.77,11.35A18.12,18.12,0,0,1,147.6,267.9Z"/><path class="cls-6" d="M60.27,249.33a19,19,0,0,1,16-19.25,21,21,0,0,1,5.81-.17,4.48,4.48,0,0,1,3.41,2,3.43,3.43,0,0,1-.35,4.57c-.3.33-.63.63-1,.93-3.37,3.09-3.2,6.82.41,9.67a5.33,5.33,0,0,0,6.13.58,10.73,10.73,0,0,0,1.73-1.08c3.05-2.35,5.52-.33,5.79,2.65.65,7.07-2.49,12.32-8.18,16.16a15.87,15.87,0,0,1-10.43,2.54c-2.07-.16-4.17,0-6.19-.61-6.87-2-10.76-6.86-12.57-13.58a15,15,0,0,1-.39-2C60.38,250.84,60.32,249.91,60.27,249.33Z"/></svg>