<svg id="Layer_1" data-name="Layer 1" xmlns="http://www.w3.org/2000/svg" viewBox="0 0 500 348"><title>M</title><path d="M494.22,165.66a206.06,206.06,0,0,0-9.35-40.11,197.19,197.19,0,0,0-54.26-83.87,240.67,240.67,0,0,0-52.28-36,6.53,6.53,0,0,0-6.09-.08C365,8.9,357.72,12.18,350.55,15.68a340.33,340.33,0,0,0-41.44,23.41c-14.93,10.08-29.24,21-43.62,31.85-4,3-7.9,6.06-11.89,9-2.75,2-4.41,2-6.9-.1-5-4.27-10.39-8.11-15.57-12.17C204.84,47.12,177.07,28.84,147,14.12c-6.18-3-12.46-5.84-18.75-8.61a6.45,6.45,0,0,0-6.83.45c-1,.71-2.14,1.26-3.22,1.89-7.4,4.29-15,8.22-22.08,13.1a234.2,234.2,0,0,0-35.5,30,196,196,0,0,0-34,47.45C11.8,127.51,5.35,158.64,4.69,191.11a259,259,0,0,0,1.56,30.23c.9,9.17,1.85,18.33,3.62,27.39A160.34,160.34,0,0,0,29,300.07c8.44,14.32,17.06,28.52,25.72,42.7h61.93q-1.95-5.52-3.88-11c-7.34-21-14.64-42-20.08-63.59a363.77,363.77,0,0,1-7.4-37c-1.09-7.54-1.92-15.1-2.41-22.69a87.07,87.07,0,0,1-.43-12.71c.6-7.73,1.3-15.45,2.05-23.17a115.41,115.41,0,0,1,4.39-23.24C92.78,137,99,126.11,108.75,117.5a68.6,68.6,0,0,1,38.88-17.27,41.19,41.19,0,0,1,30.71,8.51c6.68,5.19,11.33,12,15.08,19.43,5.26,10.48,8.49,21.63,11,33A244.13,244.13,0,0,1,209.6,208q.39,16.78-.12,33.59c-.36,11.55-.63,23.1-.89,34.66s-.65,52.2-2.41,63.58c-.42,2.69-.34,2.7,2.39,2.7h82.79c.51,0,1,0,1.53,0,.83,0,1.24-.33,1.14-1.18,0-.37,0-.74-.07-1.1-.87-6.61-1.17-42.51-1.56-49.15-.73-12.11-1.4-24.24-1.75-36.38-.44-15.21-.51-30.43.12-45.65a308.13,308.13,0,0,1,4.57-43.6c1.92-10.38,4.35-20.62,8.44-30.39,3.9-9.33,8.86-18,16.3-25a42.1,42.1,0,0,1,29.13-11.93,52.6,52.6,0,0,1,17,2.8c13.65,4.39,25.23,11.86,34,23.34,8.5,11.1,12.85,23.87,15,37.51,1.61,10.35,2.15,20.8,3.05,31.22A90.29,90.29,0,0,1,418,206a284.25,284.25,0,0,1-3.35,29.41,407,407,0,0,1-13.31,55c-5.48,17.63-11.71,35-17.81,52.43h62.21c7.57-12.35,15.17-24.7,22.61-37.14a175.47,175.47,0,0,0,21.82-56,307.45,307.45,0,0,0,5.58-45.47A221.58,221.58,0,0,0,494.22,165.66Z" fill="#f3a74f"/></svg>