<?xml version="1.0" encoding="utf-8"?>
<!-- Generator: Adobe Illustrator 19.1.0, SVG Export Plug-In . SVG Version: 6.00 Build 0)  -->
<svg version="1.1" id="bitbucket" xmlns="http://www.w3.org/2000/svg" xmlns:xlink="http://www.w3.org/1999/xlink" x="0px" y="0px"
	 viewBox="0 0 83.8 24" enable-background="new 0 0 83.8 24" xml:space="preserve">
<g>
	<g>
		<path fill="#E8A723" d="M15.1,2.1c-0.4-1.1-1.5-1.7-2.6-1.3s-1.7,1.5-1.3,2.6l5.4,16.5c0.4,1,1.5,1.6,2.5,1.3
			c1.1-0.3,1.8-1.5,1.4-2.6C20.5,18.6,15.1,2.1,15.1,2.1z"/>
		<path fill="#3EB890" d="M6.8,4.8C6.4,3.8,5.3,3.2,4.2,3.5S2.5,5,2.8,6.1l5.4,16.5c0.4,1,1.5,1.6,2.5,1.3c1.1-0.3,1.8-1.5,1.4-2.6
			C12.1,21.3,6.8,4.8,6.8,4.8z"/>
		<path fill="#E01765" d="M21.9,15.8c1.1-0.4,1.7-1.5,1.3-2.6s-1.5-1.7-2.6-1.3L4.1,17.2c-1,0.4-1.6,1.5-1.3,2.5
			c0.3,1.1,1.5,1.8,2.6,1.4C5.4,21.2,21.9,15.8,21.9,15.8z"/>
		<path fill="#472A49" d="M7.5,20.5c1.1-0.3,2.5-0.8,3.9-1.3c-0.3-1.1-0.8-2.5-1.3-3.9l-3.9,1.3L7.5,20.5z"/>
		<path fill="#CC2027" d="M15.8,17.8c1.5-0.5,2.9-0.9,3.9-1.3c-0.3-1.1-0.8-2.5-1.3-3.9l-3.9,1.3L15.8,17.8z"/>
		<path fill="#70CADB" d="M19.2,7.5c1.1-0.4,1.7-1.5,1.3-2.6S19,3.2,17.9,3.6L1.4,8.9c-1,0.4-1.6,1.5-1.3,2.5
			c0.3,1.1,1.5,1.8,2.6,1.4C2.7,12.9,19.2,7.5,19.2,7.5z"/>
		<path fill="#1A937D" d="M4.8,12.2c1.1-0.3,2.5-0.8,3.9-1.3C8.3,9.4,7.8,8,7.5,6.9L3.5,8.2L4.8,12.2z"/>
		<path fill="#65863A" d="M13.1,9.5C14.6,9,16,8.5,17.1,8.2c-0.5-1.5-0.9-2.9-1.3-3.9l-3.9,1.3L13.1,9.5z"/>
	</g>
</g>
<path fill="#3B434B" d="M38.6,6.5c0.7,0.3,0.8,0.6,0.2,1.6c-0.6,1.1-0.7,1.2-1.4,0.9c-0.9-0.4-2.1-0.7-2.8-0.7c-1.2,0-2,0.4-2,1.1
	c0,2.2,7,1,7,5.7c0,2.3-2,3.9-5,3.9c-1.6,0-3.6-0.5-4.9-1.2c-0.7-0.3-0.7-0.5-0.1-1.7c0.5-1,0.7-1.1,1.4-0.8
	c1.2,0.5,2.6,0.9,3.6,0.9c1.1,0,1.9-0.5,1.9-1.1c0-2.1-7.1-1.1-7.1-5.6c0-2.4,2-4,5-4C35.6,5.5,37.4,5.9,38.6,6.5z"/>
<path fill="#3B434B" d="M44.2,0.9v17.4c0,0.3-0.3,0.5-0.7,0.5h-1.8c-0.4,0-0.7-0.3-0.7-0.5V0.9c0-0.9,0.2-0.9,1.6-0.9
	C44.2,0,44.2,0.1,44.2,0.9z"/>
<path fill="#3B434B" d="M57.3,10.7v7.5c0,0.4-0.3,0.7-0.7,0.7h-1.8c-0.4,0-0.7-0.3-0.7-0.7l0-0.8c-1,1.1-2.4,1.7-3.8,1.7
	c-2.7,0-4.6-1.6-4.6-3.9c0-2.5,2.1-4.2,5.2-4.2c1.2,0,2.3,0.2,3.1,0.6v-0.9c0-1.4-1.1-2.2-2.9-2.2c-0.9,0-1.9,0.3-2.8,0.8
	c-0.7,0.4-0.8,0.3-1.5-0.7c-0.7-1-0.7-1.2,0-1.7c1.3-0.8,3-1.4,4.6-1.4C55,5.5,57.3,7.4,57.3,10.7z M48.8,15.1
	c0,0.9,0.8,1.5,1.9,1.5c1.4,0,2.6-0.7,3.4-1.8v-1.2c-0.7-0.3-1.6-0.4-2.4-0.4C50,13.2,48.8,14,48.8,15.1z"/>
<path fill="#3B434B" d="M69.7,6.5c0.7,0.4,0.7,0.6,0,1.7c-0.7,1.1-0.8,1.1-1.5,0.8c-0.6-0.3-1.4-0.5-2.2-0.5c-2.3,0-3.8,1.5-3.8,3.8
	c0,2.4,1.5,4,3.8,4c0.8,0,1.8-0.3,2.4-0.7c0.7-0.4,0.8-0.4,1.5,0.7c0.6,1,0.6,1.2,0.1,1.6c-1,0.7-2.6,1.2-4.1,1.2
	c-4.2,0-7.1-2.7-7.1-6.8c0-4,2.8-6.7,7.1-6.7C67.2,5.5,68.7,5.9,69.7,6.5z"/>
<path fill="#3B434B" d="M83.5,17.3c0.5,0.7,0.3,0.9-1,1.4c-1.4,0.5-1.5,0.5-2-0.2l-3.8-5.1L75,15.1v3.3c0,0.3-0.3,0.5-0.7,0.5h-1.8
	c-0.4,0-0.7-0.3-0.7-0.5V0.9c0-0.9,0.2-0.9,1.6-0.9C75,0,75,0.1,75,0.9v9.9l5.2-5c0.6-0.5,0.9-0.5,1.9,0.2c1.1,0.7,1.2,0.9,0.7,1.5
	l-3.9,3.8L83.5,17.3z"/>
</svg>