<svg id="Layer_1" data-name="Layer 1" xmlns="http://www.w3.org/2000/svg" viewBox="0 0 337 118"><defs><style>.cls-1{fill:#326de5;}.cls-2{fill:#fcfcfe;}.cls-3{fill:#ff4b05;}.cls-4{fill:none;stroke:#cecece;stroke-miterlimit:10;stroke-width:5px;}.cls-5{fill:#cecece;}</style></defs><title>cluster icons</title><path class="cls-1" d="M278.34,109.77c-6.16,0-12.32-.13-18.47.05a9.19,9.19,0,0,1-8.06-3.91c-7.9-10-15.91-19.83-23.88-29.74a7.08,7.08,0,0,1-1.41-6.27q3.53-15.53,7.14-31c.58-2.52,1.15-5,1.78-7.55a6.64,6.64,0,0,1,3.68-4.6l28.26-13.5c2.54-1.21,5.1-2.4,7.62-3.66a7.14,7.14,0,0,1,6.66,0q17.87,8.56,35.77,17.06c2.61,1.24,3.63,3.48,4.23,6.12,2.83,12.42,5.73,24.83,8.57,37.25a7,7,0,0,1-1.38,6.15q-7.6,9.46-15.23,18.9l-9.75,12.09a6.89,6.89,0,0,1-5.68,2.67Zm28.1-48.47a26.84,26.84,0,0,0-4.08-14.89c-.19-.32-.66-.68-.37-1.09.68-.94,1-2.17,2.15-2.77s2.19-1.37,3.31-2,2-1.4,1.92-2.8A1.79,1.79,0,0,0,308,36a3.1,3.1,0,0,0-3.19,1.2,19.31,19.31,0,0,1-3.71,3.53c-.86.53-2,1.27-2.95.37a28.5,28.5,0,0,0-16.43-7.95,1.27,1.27,0,0,1-1-.68c-1.06-1.59-.75-3.25-.54-4.93a14.69,14.69,0,0,0,.4-3.29A2.41,2.41,0,0,0,278.36,22a2.35,2.35,0,0,0-2.2,2.27,7.79,7.79,0,0,0,.15,1.93,18.24,18.24,0,0,1,.42,4.41,2.73,2.73,0,0,1-2.33,2.61,28.25,28.25,0,0,0-15.09,7.09c-1.59,1.44-2.67,1.51-4.31.06-1.31-1.17-2.47-2.5-3.77-3.68A2.24,2.24,0,1,0,248.47,40a9.39,9.39,0,0,0,.93.61,30.46,30.46,0,0,1,3.94,2.58c1,.89,1.5,2.37,1,3.17a27.55,27.55,0,0,0-3.94,17.67,1,1,0,0,1-.45,1.09c-1.46,1.31-3.2,1.48-5,1.64a9.87,9.87,0,0,0-3.41.54,2.05,2.05,0,0,0-1.29,2.47,2,2,0,0,0,2.14,1.62,5,5,0,0,0,2-.44c1.34-.5,2.68-1,4.05-1.42s3.09.15,3.37.92a28.1,28.1,0,0,0,11.51,14.32c.23.14.63.25.54.55-.31,1,.22,2.17-.54,3.19s-1.35,2.3-2.17,3.38a3.83,3.83,0,0,0-.92,2.56,2,2,0,0,0,3.07,1.73A3.5,3.5,0,0,0,264.87,94c.52-1.48,1-3,1.6-4.43s2-2.17,2.91-1.85a27.77,27.77,0,0,0,18,0,1.58,1.58,0,0,1,1.43.28,4.82,4.82,0,0,1,2.07,3c.5,1.34.89,2.73,1.46,4a2.26,2.26,0,0,0,2.85,1.32,2.23,2.23,0,0,0,1.11-3,11.44,11.44,0,0,0-1-1.81c-.7-1.14-1.46-2.25-2.11-3.42s-.39-2.81.24-3.21a28,28,0,0,0,11.49-14.34,1.23,1.23,0,0,1,.89-.81c1.86-.72,3.43.08,5.06.66a15.76,15.76,0,0,0,2.88,1,2.27,2.27,0,0,0,2.74-1.54,2.2,2.2,0,0,0-1.78-2.7,12.38,12.38,0,0,0-2.47-.31,16.54,16.54,0,0,1-3.69-.59,2.57,2.57,0,0,1-2.1-2.94C306.46,62.6,306.43,62,306.43,61.3Z"/><path class="cls-2" d="M306.43,61.3c0,.65,0,1.3,0,1.94a2.57,2.57,0,0,0,2.1,2.94,16.54,16.54,0,0,0,3.69.59,12.38,12.38,0,0,1,2.47.31,2.2,2.2,0,0,1,1.78,2.7,2.27,2.27,0,0,1-2.74,1.54,15.76,15.76,0,0,1-2.88-1c-1.63-.58-3.2-1.38-5.06-.66a1.23,1.23,0,0,0-.89.81,28,28,0,0,1-11.49,14.34c-.64.4-.81,2.19-.24,3.21s1.41,2.28,2.11,3.42a11.44,11.44,0,0,1,1,1.81,2.23,2.23,0,0,1-1.11,3A2.26,2.26,0,0,1,292.33,95c-.58-1.31-1-2.7-1.46-4a4.82,4.82,0,0,0-2.07-3,1.58,1.58,0,0,0-1.43-.28,27.77,27.77,0,0,1-18,0c-1-.32-2.35.52-2.91,1.85s-1.08,2.95-1.6,4.43a3.5,3.5,0,0,1-1.53,2.22,2,2,0,0,1-3.07-1.73,3.83,3.83,0,0,1,.92-2.56c.82-1.07,1.38-2.31,2.17-3.38s.23-2.15.54-3.19c.09-.3-.31-.4-.54-.55a28.1,28.1,0,0,1-11.51-14.32c-.29-.77-2.07-1.3-3.37-.92s-2.71.92-4.05,1.42a5,5,0,0,1-2,.44,2,2,0,0,1-2.14-1.62,2.05,2.05,0,0,1,1.29-2.47,9.87,9.87,0,0,1,3.41-.54c1.79-.16,3.53-.33,5-1.64a1,1,0,0,0,.45-1.09,27.55,27.55,0,0,1,3.94-17.67c.49-.8,0-2.28-1-3.17a30.46,30.46,0,0,0-3.94-2.58,9.39,9.39,0,0,1-.93-.61,2.24,2.24,0,1,1,2.77-3.39c1.3,1.18,2.46,2.51,3.77,3.68,1.64,1.45,2.71,1.38,4.31-.06a28.25,28.25,0,0,1,15.09-7.09,2.73,2.73,0,0,0,2.33-2.61,18.24,18.24,0,0,0-.42-4.41,7.79,7.79,0,0,1-.15-1.93,2.35,2.35,0,0,1,2.2-2.27,2.41,2.41,0,0,1,2.22,2.26,14.69,14.69,0,0,1-.4,3.29c-.2,1.68-.52,3.34.54,4.93a1.27,1.27,0,0,0,1,.68,28.5,28.5,0,0,1,16.43,7.95c.93.9,2.08.15,2.95-.37a19.31,19.31,0,0,0,3.71-3.53A3.1,3.1,0,0,1,308,36a1.79,1.79,0,0,1,1.35,1.75c.08,1.4-.83,2.16-1.92,2.8s-2.16,1.45-3.31,2-1.47,1.83-2.15,2.77c-.3.41.17.77.37,1.09A26.84,26.84,0,0,1,306.43,61.3Zm-6.94,7.44c-3.86-.85-7.69-1.42-11.52-1.95-1.52-.21-2.35,1.22-1.72,2.78,1.28,3.17,2.61,6.31,3.91,9.47.25.61.41.91,1.15.39A22.66,22.66,0,0,0,299.5,68.74ZM275.4,42.87h0c.06-1.11.11-2.21.18-3.32,0-.56-.05-.81-.75-.69a22.55,22.55,0,0,0-11.56,5.54c-.56.51-.44.74.1,1.12,2.8,2,5.56,4,8.37,5.89,1.65,1.13,3.15.37,3.27-1.62C275.15,47.48,275.27,45.17,275.4,42.87ZM255.9,60.81q0,.76,0,1.53c0,.69.2,1,1,.76,3.27-1,6.57-1.89,9.84-2.86a1.93,1.93,0,0,0,.77-3.51c-2.5-2.26-5-4.48-7.54-6.75-.62-.56-.9-.53-1.31.22A23.6,23.6,0,0,0,255.9,60.81Zm45-.59a24,24,0,0,0-2.85-10c-.4-.72-.67-.82-1.3-.25-2.49,2.27-5,4.49-7.53,6.75a1.92,1.92,0,0,0,.8,3.49q4.31,1.27,8.65,2.48C300.87,63.28,300.88,63.26,300.86,60.22Zm-32.44,6.57c-3.29.58-6.87,1.23-10.46,1.84-.85.14-.47.64-.32,1a22.24,22.24,0,0,0,8,9.85c.36.24.58.42.81-.14,1.37-3.37,2.83-6.71,4.12-10.11C271.07,67.92,270.08,66.78,268.42,66.79Zm9.92,16.69a25.12,25.12,0,0,0,6.15-.84c.77-.2,1-.45.59-1.21-1.7-3-3.34-6.05-5.08-9a1.77,1.77,0,0,0-3.28,0c-1.7,3-3.33,6-5,8.92-.45.8-.23,1.07.62,1.29A25.81,25.81,0,0,0,278.34,83.48Zm2.94-44.68a1.67,1.67,0,0,0-.11.44c.19,3.65.34,7.3.59,10.94a1.82,1.82,0,0,0,2.89,1.38c3.13-2.1,6.19-4.33,9.35-6.55A22.31,22.31,0,0,0,281.29,38.8ZM278.4,57.51c-1.7,0-3.88,1.65-3.87,2.94,0,2.07,2,4.46,3.78,4.53s3.94-2.57,3.88-4.58C282.15,59.15,280,57.51,278.4,57.51Z"/><path class="cls-1" d="M299.5,68.74a22.66,22.66,0,0,1-8.19,10.7c-.73.52-.9.21-1.15-.39-1.3-3.16-2.63-6.3-3.91-9.47-.63-1.56.2-3,1.72-2.78C291.81,67.32,295.64,67.89,299.5,68.74Z"/><path class="cls-1" d="M275.4,42.87c-.13,2.3-.25,4.61-.39,6.91-.12,2-1.62,2.76-3.27,1.62-2.81-1.93-5.57-3.94-8.37-5.89-.54-.38-.66-.61-.1-1.12a22.55,22.55,0,0,1,11.56-5.54c.7-.12.79.13.75.69-.07,1.11-.12,2.21-.18,3.32Z"/><path class="cls-1" d="M255.9,60.81a23.6,23.6,0,0,1,2.77-10.62c.41-.74.69-.78,1.31-.22,2.49,2.27,5,4.49,7.54,6.75a1.93,1.93,0,0,1-.77,3.51c-3.28,1-6.57,1.88-9.84,2.86-.8.24-1-.06-1-.76Q255.9,61.57,255.9,60.81Z"/><path class="cls-1" d="M300.86,60.22c0,3,0,3.06-2.23,2.44q-4.34-1.2-8.65-2.48a1.92,1.92,0,0,1-.8-3.49c2.5-2.26,5-4.48,7.53-6.75.63-.57.9-.47,1.3.25A24,24,0,0,1,300.86,60.22Z"/><path class="cls-1" d="M268.42,66.79c1.65,0,2.65,1.13,2.15,2.42-1.29,3.4-2.75,6.74-4.12,10.11-.23.56-.45.39-.81.14a22.24,22.24,0,0,1-8-9.85c-.15-.36-.54-.85.32-1C261.55,68,265.14,67.37,268.42,66.79Z"/><path class="cls-1" d="M278.34,83.48a25.87,25.87,0,0,1-6-.85c-.85-.21-1.08-.49-.62-1.29,1.68-3,3.31-6,5-8.92a1.77,1.77,0,0,1,3.28,0c1.74,3,3.37,6,5.08,9,.43.76.18,1-.59,1.21A25.17,25.17,0,0,1,278.34,83.48Z"/><path class="cls-1" d="M281.29,38.8A22.31,22.31,0,0,1,294,45c-3.16,2.23-6.22,4.45-9.35,6.55a1.82,1.82,0,0,1-2.89-1.38c-.25-3.64-.4-7.29-.59-10.94A1.67,1.67,0,0,1,281.29,38.8Z"/><path class="cls-1" d="M278.4,57.51c1.6,0,3.75,1.64,3.79,2.89.06,2-2.18,4.65-3.88,4.58s-3.78-2.46-3.78-4.53C274.53,59.17,276.71,57.51,278.4,57.51Z"/><path class="cls-3" d="M32.18,20.25c2.37-.17,4.49-.45,6.6-.46,13.22,0,26.45,0,39.67,0,4.3,0,8.6-.13,12.9,0,7.46.14,13.39,3.24,17.52,9.52A19.05,19.05,0,0,1,112,39.9q0,23.8.07,47.6c0,3.43,0,6.88-1.37,10.14C107.55,105.1,102,109.43,94,110.46a22,22,0,0,1-2.76.16l-38.62,0c-5.19,0-10.39,0-15.58-.05A19.71,19.71,0,0,1,17.77,92.68c-.25-3.14-.19-6.3-.19-9.45,0-14.21,0-28.42,0-42.64a60.88,60.88,0,0,1,.8-7.29c.09-.74.46-.83,1-.28,3.22,3.22,6.46,6.43,9.62,9.71a2.73,2.73,0,0,1,.5,1.74c0,8.13,0,16.25,0,24.38,0,6.37,0,12.74.09,19.12A27.61,27.61,0,0,0,30,92.81C30.64,96.17,33,98.1,36.09,99a39.48,39.48,0,0,0,5.16.82,6.83,6.83,0,0,0,1,0c9.14,0,18.29.06,27.43.07,6.09,0,12.17,0,18.25-.13a22.83,22.83,0,0,0,6-1,9.56,9.56,0,0,0,6.66-9.28c-.07-8.15-.18-16.31-.29-24.46q-.13-9.75-.31-19.49a42.33,42.33,0,0,0-.34-6.19,10.43,10.43,0,0,0-9.44-8.61c-2.31-.2-4.64-.19-7-.19q-19.31,0-38.62,0a5,5,0,0,1-3.89-1.62c-2.36-2.46-4.83-4.82-7.24-7.23C33.05,21.32,32.72,20.87,32.18,20.25Z"/><path class="cls-3" d="M53.41,36.53c0,.35.05.7.06,1q0,7.41.07,14.81c0,1.73-.14,1.87-1.82,1.87-4.3,0-8.6,0-12.9,0A23.61,23.61,0,0,1,36.46,54c1.06-2.09,2.89-3.09,4.18-4.7L11.12,20.18,6.57,24.95V7.34H24.06l-5.38,5.53c1.57,1.42,3.14,2.72,4.59,4.15q11.61,11.5,23.17,23.06c.2.2.4.41.61.61.87.8,1.36.79,2.18-.08,1.05-1.11,2.1-2.22,3.12-3.36a6.76,6.76,0,0,0,.65-1Z"/><path class="cls-3" d="M94.17,81.39c0,2.58,0,5.16,0,7.74a5.24,5.24,0,0,1-5.33,5.42q-7.74.05-15.47,0a5.21,5.21,0,0,1-5.48-5.47q-.07-7.69,0-15.38a5.25,5.25,0,0,1,5.62-5.43h15a5.31,5.31,0,0,1,5.67,5.67c0,1.24,0,2.48,0,3.72s0,2.48,0,3.72Z"/><path class="cls-3" d="M81,35.72c2.49,0,5,0,7.46,0,3.54,0,5.7,2.2,5.7,5.73q0,7.26,0,14.53c0,3.85-2,6-5.8,6-4.87.09-9.75.08-14.62,0-3.88-.06-5.87-2.21-5.87-6.1,0-4.84,0-9.69,0-14.53A5.3,5.3,0,0,1,72,35.86a10.16,10.16,0,0,1,2.09-.13C76.42,35.71,78.72,35.72,81,35.72Z"/><path class="cls-3" d="M35.32,81.32c0-2.51,0-5,0-7.54a5.24,5.24,0,0,1,5.53-5.5H56c3.14,0,5.29,1.89,5.46,5s.12,6.11.11,9.17c0,2.42,0,4.84-.13,7.25a4.94,4.94,0,0,1-5,4.8q-8.07.09-16.15,0a5.09,5.09,0,0,1-5-5.1c0-1.37-.05-2.74-.06-4.1s0-2.67,0-4Z"/><path class="cls-4" d="M143,61.63h48.38"/><polygon class="cls-5" points="188.61 71.1 205.02 61.63 188.61 52.16 188.61 71.1"/></svg>